<?xml version="1.0" encoding="UTF-8" standalone="no"?>
<!-- Generator: Adobe Illustrator 19.0.0, SVG Export Plug-In . SVG Version: 6.00 Build 0)  -->

<svg
   version="1.1"
   id="Layer_1"
   x="0px"
   y="0px"
   viewBox="0 0 500.00001 499.99999"
   xml:space="preserve"
   sodipodi:docname="logo.svg"
   width="500"
   height="500"
   inkscape:version="1.1 (c68e22c387, 2021-05-23)"
   inkscape:export-filename="C:\Users\naomi\Downloads\logo.png"
   inkscape:export-xdpi="96"
   inkscape:export-ydpi="96"
   xmlns:inkscape="http://www.inkscape.org/namespaces/inkscape"
   xmlns:sodipodi="http://sodipodi.sourceforge.net/DTD/sodipodi-0.dtd"
   xmlns:xlink="http://www.w3.org/1999/xlink"
   xmlns="http://www.w3.org/2000/svg"
   xmlns:svg="http://www.w3.org/2000/svg"><defs
   id="defs7481"><linearGradient
     inkscape:collect="always"
     id="linearGradient125986"><stop
       style="stop-color:#ff9811;stop-opacity:1;"
       offset="0"
       id="stop125982" /><stop
       style="stop-color:#ff9811;stop-opacity:0;"
       offset="1"
       id="stop125984" /></linearGradient><linearGradient
     inkscape:collect="always"
     xlink:href="#linearGradient125986"
     id="linearGradient125988"
     x1="111.4808"
     y1="441.23203"
     x2="389.94955"
     y2="441.23203"
     gradientUnits="userSpaceOnUse" /></defs><sodipodi:namedview
   id="namedview7479"
   pagecolor="#ffffff"
   bordercolor="#cccccc"
   borderopacity="1"
   inkscape:pageshadow="0"
   inkscape:pageopacity="1"
   inkscape:pagecheckerboard="0"
   showgrid="false"
   fit-margin-top="0"
   fit-margin-left="0"
   fit-margin-right="0"
   fit-margin-bottom="0"
   inkscape:zoom="1.4088798"
   inkscape:cx="246.29496"
   inkscape:cy="269.00804"
   inkscape:window-width="2560"
   inkscape:window-height="1346"
   inkscape:window-x="-11"
   inkscape:window-y="-11"
   inkscape:window-maximized="1"
   inkscape:current-layer="Layer_1" />




<circle
   style="fill:#38383b;fill-opacity:1;stroke-width:9.68296"
   id="path977"
   cx="250"
   cy="250"
   r="250" /><g
   id="g7448"
   transform="translate(0.93099826,135.95929)">
</g>
<g
   id="g7450"
   transform="translate(0.93099826,135.95929)">
</g>
<g
   id="g7452"
   transform="translate(0.93099826,135.95929)">
</g>
<g
   id="g7454"
   transform="translate(0.93099826,135.95929)">
</g>
<g
   id="g7456"
   transform="translate(0.93099826,135.95929)">
</g>
<g
   id="g7458"
   transform="translate(0.93099826,135.95929)">
</g>
<g
   id="g7460"
   transform="translate(0.93099826,135.95929)">
</g>
<g
   id="g7462"
   transform="translate(0.93099826,135.95929)">
</g>
<g
   id="g7464"
   transform="translate(0.93099826,135.95929)">
</g>
<g
   id="g7466"
   transform="translate(0.93099826,135.95929)">
</g>
<g
   id="g7468"
   transform="translate(0.93099826,135.95929)">
</g>
<g
   id="g7470"
   transform="translate(0.93099826,135.95929)">
</g>
<g
   id="g7472"
   transform="translate(0.93099826,135.95929)">
</g>
<g
   id="g7474"
   transform="translate(0.93099826,135.95929)">
</g>
<g
   id="g7476"
   transform="translate(0.93099826,135.95929)">
</g>
<circle
   style="fill:#ffcc00;stroke-width:0.58992"
   cx="251.59799"
   cy="237.68259"
   id="circle7822"
   r="105.99974" /><path
   style="fill:#ff9811;stroke-width:0.58992"
   d="m 175.27358,237.67905 c 0,-53.50515 39.64557,-97.74206 91.16267,-104.95854 -4.84855,-0.67841 -9.80033,-1.03767 -14.8353,-1.03767 -58.54069,0 -105.99679,47.45728 -105.99679,105.99621 0,58.54069 47.45669,105.99797 105.99738,105.99797 5.03497,0 9.98675,-0.35926 14.83471,-1.03826 -51.51769,-7.2159 -91.16267,-51.45398 -91.16267,-104.95971 z"
   id="path7824" /><g
   id="g7830"
   transform="matrix(0.58991982,0,0,0.58991982,100.57852,131.68284)"><circle
     style="fill:#ffffff"
     cx="323.965"
     cy="231.07899"
     r="54.372002"
     id="circle7826" /><circle
     style="fill:#ffffff"
     cx="351.14999"
     cy="122.336"
     r="27.186001"
     id="circle7828" /></g><path
   style="fill:#818085;stroke-width:0.58992"
   d="m 219.52642,380.26326 v 21.38341 c 0,17.71412 14.36101,32.07512 32.07512,32.07512 17.71411,0 32.07512,-14.361 32.07512,-32.07512 v -21.38341 z"
   id="path7832" /><path
   style="fill:#818085;fill-opacity:1;stroke-width:0.58992"
   d="m 219.52642,380.26326 v 21.38341 c 0,17.71412 14.36101,32.07512 32.07512,32.07512 0,-16.34785 0,-53.45853 0,-53.45853 z"
   id="path7834" /><rect
   x="203.4859"
   y="332.15118"
   style="fill:#dedde0;stroke-width:0.58992"
   width="96.224777"
   height="64.149651"
   id="rect7836" /><g
   id="g7842"
   transform="matrix(0.58991982,0,0,0.58991982,100.57852,131.68284)"><rect
     x="174.44299"
     y="339.823"
     style="fill:#bdbcc1"
     width="81.556999"
     height="54.372002"
     id="rect7838" /><rect
     x="174.44299"
     y="394.194"
     style="fill:#bdbcc1"
     width="163.11501"
     height="54.372002"
     id="rect7840" /></g><rect
   x="203.4859"
   y="364.22568"
   style="fill:#acabb1;stroke-width:0.58992"
   width="48.112091"
   height="32.075123"
   id="rect7844" /><g
   id="g7846"
   transform="matrix(0.58991982,0,0,0.58991982,100.57852,131.68284)" /><g
   id="g7848"
   transform="matrix(0.58991982,0,0,0.58991982,100.57852,131.68284)" /><g
   id="g7850"
   transform="matrix(0.58991982,0,0,0.58991982,100.57852,131.68284)" /><g
   id="g7852"
   transform="matrix(0.58991982,0,0,0.58991982,100.57852,131.68284)" /><g
   id="g7854"
   transform="matrix(0.58991982,0,0,0.58991982,100.57852,131.68284)" /><g
   id="g7856"
   transform="matrix(0.58991982,0,0,0.58991982,100.57852,131.68284)" /><g
   id="g7858"
   transform="matrix(0.58991982,0,0,0.58991982,100.57852,131.68284)" /><g
   id="g7860"
   transform="matrix(0.58991982,0,0,0.58991982,100.57852,131.68284)" /><g
   id="g7862"
   transform="matrix(0.58991982,0,0,0.58991982,100.57852,131.68284)" /><g
   id="g7864"
   transform="matrix(0.58991982,0,0,0.58991982,100.57852,131.68284)" /><g
   id="g7866"
   transform="matrix(0.58991982,0,0,0.58991982,100.57852,131.68284)" /><g
   id="g7868"
   transform="matrix(0.58991982,0,0,0.58991982,100.57852,131.68284)" /><g
   id="g7870"
   transform="matrix(0.58991982,0,0,0.58991982,100.57852,131.68284)" /><g
   id="g7872"
   transform="matrix(0.58991982,0,0,0.58991982,100.57852,131.68284)" /><g
   id="g7874"
   transform="matrix(0.58991982,0,0,0.58991982,100.57852,131.68284)" /><path
   style="fill:#ff9811;fill-opacity:1;stroke-width:1.53536"
   d="m 255.74177,125.22263 c 6.09059,0 11.02569,-5.38308 11.02569,-12.02654 V 63.84078 c 0,-6.64347 -4.9351,-12.02654 -11.02569,-12.02654 -6.09059,0 -11.02569,5.38307 -11.02569,12.02654 v 49.35531 c 0,6.64346 4.93658,12.02654 11.02569,12.02654 z"
   id="path9170" /><path
   style="fill:#ffcc00;fill-opacity:1;stroke-width:1.53536"
   d="m 400.79864,107.29346 c -4.20152,-4.80259 -11.18152,-4.98059 -15.58886,-0.39767 l -33.47398,34.84489 c -4.40586,4.58452 -4.56757,12.19812 -0.36458,17.00392 2.16691,2.47586 5.06887,3.72342 7.97819,3.72342 2.73436,0 5.47609,-1.10324 7.61066,-3.32574 l 33.47398,-34.8465 c 4.40587,-4.58451 4.56758,-12.19811 0.36459,-17.00232 z"
   id="path9172" /><path
   style="fill:#ffcc00;fill-opacity:1;stroke-width:1.53536"
   d="m 159.14631,327.87666 c -4.20152,-4.80259 -11.18152,-4.98059 -15.58886,-0.39767 l -33.47398,34.84488 c -4.40585,4.58452 -4.56756,12.19812 -0.36458,17.00392 2.16691,2.47586 5.06887,3.72342 7.97819,3.72342 2.73436,0 5.47609,-1.10324 7.61066,-3.32574 l 33.47398,-34.84649 c 4.40587,-4.58451 4.56758,-12.19811 0.36459,-17.00232 z"
   id="path9172-8" /><path
   style="fill:#ff9811;fill-opacity:1;stroke-width:1.53536"
   d="m 433.664,227.56045 c -0.006,0 -0.0118,0 -0.0176,0 l -43.08985,0.0754 c -6.09059,0.0113 -11.01834,5.40394 -11.00804,12.04579 0.0102,6.63705 4.94392,12.0073 11.02569,12.0073 0.006,0 0.0118,0 0.0176,0 l 43.08985,-0.0754 c 6.0906,-0.0113 11.01834,-5.40393 11.00805,-12.04579 -0.009,-6.63704 -4.94391,-12.0073 -11.02568,-12.0073 z"
   id="path9174" /><path
   style="fill:#ffcc00;fill-opacity:1;stroke-width:1.53536"
   d="m 154.51275,155.53752 c 4.20299,-4.8042 4.04128,-12.41619 -0.36459,-17.00392 l -33.47398,-34.84489 c -4.40145,-4.58291 -11.38145,-4.40813 -15.58884,0.39768 -4.20301,4.8042 -4.04129,12.4162 0.36458,17.00392 l 33.47398,34.84649 c 2.13457,2.22251 4.87335,3.32574 7.61066,3.32574 2.90785,-0.002 5.81127,-1.24915 7.97819,-3.72502 z"
   id="path9176" /><path
   style="fill:#ffcc00;fill-opacity:1;stroke-width:1.53536"
   d="m 396.53474,377.91736 c 4.20299,-4.8042 4.04128,-12.41619 -0.36459,-17.00393 l -33.47398,-34.84489 c -4.40145,-4.58291 -11.38145,-4.40813 -15.58884,0.39768 -4.20301,4.8042 -4.04129,12.4162 0.36458,17.00392 l 33.47398,34.8465 c 2.13457,2.22251 4.87335,3.32574 7.61066,3.32574 2.90785,-0.002 5.81127,-1.24915 7.97819,-3.72502 z"
   id="path9176-4" /><path
   style="fill:#ff9811;fill-opacity:1;stroke-width:1.53536"
   d="m 110.91424,227.63582 -43.088382,-0.0754 c -0.006,0 -0.0118,0 -0.0176,0 -6.08177,0 -11.01539,5.37346 -11.02568,12.0073 -0.0103,6.64186 4.91893,12.03456 11.00804,12.04579 l 43.088392,0.0754 c 0.006,0 0.0118,0 0.0176,0 6.08176,0 11.01539,-5.37346 11.02568,-12.0073 0.0118,-6.64186 -4.91746,-12.03617 -11.00805,-12.04579 z"
   id="path9178" /></svg>
