<?xml version="1.0" encoding="UTF-8" standalone="no"?>
<!-- Generator: Adobe Illustrator 19.0.0, SVG Export Plug-In . SVG Version: 6.00 Build 0)  -->

<svg
   version="1.1"
   id="Layer_1"
   x="0px"
   y="0px"
   viewBox="0 0 1568.2657 163.1875"
   xml:space="preserve"
   sodipodi:docname="slogan.svg"
   width="1568.2656"
   height="163.1875"
   inkscape:version="1.1 (c68e22c387, 2021-05-23)"
   inkscape:export-filename="C:\Users\naomi\Downloads\logo.png"
   inkscape:export-xdpi="96"
   inkscape:export-ydpi="96"
   xmlns:inkscape="http://www.inkscape.org/namespaces/inkscape"
   xmlns:sodipodi="http://sodipodi.sourceforge.net/DTD/sodipodi-0.dtd"
   xmlns:xlink="http://www.w3.org/1999/xlink"
   xmlns="http://www.w3.org/2000/svg"
   xmlns:svg="http://www.w3.org/2000/svg"><defs
   id="defs7481"><linearGradient
     inkscape:collect="always"
     id="linearGradient125986"><stop
       style="stop-color:#ff9811;stop-opacity:1;"
       offset="0"
       id="stop125982" /><stop
       style="stop-color:#ff9811;stop-opacity:0;"
       offset="1"
       id="stop125984" /></linearGradient><linearGradient
     inkscape:collect="always"
     xlink:href="#linearGradient125986"
     id="linearGradient125988"
     x1="111.4808"
     y1="441.23203"
     x2="389.94955"
     y2="441.23203"
     gradientUnits="userSpaceOnUse" /></defs><sodipodi:namedview
   id="namedview7479"
   pagecolor="#ffffff"
   bordercolor="#cccccc"
   borderopacity="1"
   inkscape:pageshadow="0"
   inkscape:pageopacity="1"
   inkscape:pagecheckerboard="0"
   showgrid="false"
   fit-margin-top="0"
   fit-margin-left="0"
   fit-margin-right="0"
   fit-margin-bottom="0"
   inkscape:zoom="0.87885424"
   inkscape:cx="215.05273"
   inkscape:cy="127.43865"
   inkscape:window-width="2560"
   inkscape:window-height="1346"
   inkscape:window-x="-11"
   inkscape:window-y="-11"
   inkscape:window-maximized="1"
   inkscape:current-layer="Layer_1" />




<g
   id="g7448"
   transform="translate(-472.84055,-36.59845)">
</g>
<g
   id="g7450"
   transform="translate(-472.84055,-36.59845)">
</g>
<g
   id="g7452"
   transform="translate(-472.84055,-36.59845)">
</g>
<g
   id="g7454"
   transform="translate(-472.84055,-36.59845)">
</g>
<g
   id="g7456"
   transform="translate(-472.84055,-36.59845)">
</g>
<g
   id="g7458"
   transform="translate(-472.84055,-36.59845)">
</g>
<g
   id="g7460"
   transform="translate(-472.84055,-36.59845)">
</g>
<g
   id="g7462"
   transform="translate(-472.84055,-36.59845)">
</g>
<g
   id="g7464"
   transform="translate(-472.84055,-36.59845)">
</g>
<g
   id="g7466"
   transform="translate(-472.84055,-36.59845)">
</g>
<g
   id="g7468"
   transform="translate(-472.84055,-36.59845)">
</g>
<g
   id="g7470"
   transform="translate(-472.84055,-36.59845)">
</g>
<g
   id="g7472"
   transform="translate(-472.84055,-36.59845)">
</g>
<g
   id="g7474"
   transform="translate(-472.84055,-36.59845)">
</g>
<g
   id="g7476"
   transform="translate(-472.84055,-36.59845)">
</g>
<g
   id="g7846"
   transform="matrix(0.58991982,0,0,0.58991982,-373.19303,-40.8749)" /><g
   id="g7848"
   transform="matrix(0.58991982,0,0,0.58991982,-373.19303,-40.8749)" /><g
   id="g7850"
   transform="matrix(0.58991982,0,0,0.58991982,-373.19303,-40.8749)" /><g
   id="g7852"
   transform="matrix(0.58991982,0,0,0.58991982,-373.19303,-40.8749)" /><g
   id="g7854"
   transform="matrix(0.58991982,0,0,0.58991982,-373.19303,-40.8749)" /><g
   id="g7856"
   transform="matrix(0.58991982,0,0,0.58991982,-373.19303,-40.8749)" /><g
   id="g7858"
   transform="matrix(0.58991982,0,0,0.58991982,-373.19303,-40.8749)" /><g
   id="g7860"
   transform="matrix(0.58991982,0,0,0.58991982,-373.19303,-40.8749)" /><g
   id="g7862"
   transform="matrix(0.58991982,0,0,0.58991982,-373.19303,-40.8749)" /><g
   id="g7864"
   transform="matrix(0.58991982,0,0,0.58991982,-373.19303,-40.8749)" /><g
   id="g7866"
   transform="matrix(0.58991982,0,0,0.58991982,-373.19303,-40.8749)" /><g
   id="g7868"
   transform="matrix(0.58991982,0,0,0.58991982,-373.19303,-40.8749)" /><g
   id="g7870"
   transform="matrix(0.58991982,0,0,0.58991982,-373.19303,-40.8749)" /><g
   id="g7872"
   transform="matrix(0.58991982,0,0,0.58991982,-373.19303,-40.8749)" /><g
   id="g7874"
   transform="matrix(0.58991982,0,0,0.58991982,-373.19303,-40.8749)" /><text
   xml:space="preserve"
   style="font-style:normal;font-weight:normal;font-size:160px;line-height:1.25;font-family:sans-serif;fill:#ffcc00;fill-opacity:1;stroke:#000000;stroke-opacity:1"
   x="0.5"
   y="117.92188"
   id="text112399"><tspan
     sodipodi:role="line"
     id="tspan112397"
     x="0.5"
     y="117.92188"
     style="font-style:normal;font-variant:normal;font-weight:normal;font-stretch:normal;font-size:160px;font-family:TypoGraphica;-inkscape-font-specification:TypoGraphica;fill:#ffcc00;fill-opacity:1;stroke:none;stroke-opacity:1">The <tspan
   style="font-size:160px;fill:#ff9811;fill-opacity:1"
   id="tspan20061">StuDorm</tspan> way of life</tspan></text></svg>
